<mxfile host="app.diagrams.net" modified="2020-11-27T06:31:34.378Z" agent="5.0 (Windows NT 10.0; Win64; x64) AppleWebKit/537.36 (KHTML, like Gecko) Chrome/86.0.4240.114 YaBrowser/20.11.1.81 Yowser/2.5 Safari/537.36" etag="Mjkygow5i61nDvq5jj1v" version="13.10.4" type="github">
  <diagram id="C5RBs43oDa-KdzZeNtuy" name="Page-1">
    <mxGraphModel dx="1422" dy="1996" grid="1" gridSize="10" guides="1" tooltips="1" connect="1" arrows="1" fold="1" page="1" pageScale="1" pageWidth="827" pageHeight="1169" math="0" shadow="0">
      <root>
        <mxCell id="WIyWlLk6GJQsqaUBKTNV-0" />
        <mxCell id="WIyWlLk6GJQsqaUBKTNV-1" parent="WIyWlLk6GJQsqaUBKTNV-0" />
        <mxCell id="kHC7lExiG-g5z99O_Y5z-0" value="Группа_продукта" style="swimlane;fontStyle=0;childLayout=stackLayout;horizontal=1;startSize=26;fillColor=none;horizontalStack=0;resizeParent=1;resizeParentMax=0;resizeLast=0;collapsible=1;marginBottom=0;" vertex="1" parent="WIyWlLk6GJQsqaUBKTNV-1">
          <mxGeometry x="40" y="40" width="140" height="78" as="geometry" />
        </mxCell>
        <mxCell id="kHC7lExiG-g5z99O_Y5z-1" value="Код_группы" style="text;strokeColor=none;fillColor=none;align=left;verticalAlign=top;spacingLeft=4;spacingRight=4;overflow=hidden;rotatable=0;points=[[0,0.5],[1,0.5]];portConstraint=eastwest;" vertex="1" parent="kHC7lExiG-g5z99O_Y5z-0">
          <mxGeometry y="26" width="140" height="26" as="geometry" />
        </mxCell>
        <mxCell id="kHC7lExiG-g5z99O_Y5z-2" value="Наиминование_группы" style="text;strokeColor=none;fillColor=none;align=left;verticalAlign=top;spacingLeft=4;spacingRight=4;overflow=hidden;rotatable=0;points=[[0,0.5],[1,0.5]];portConstraint=eastwest;" vertex="1" parent="kHC7lExiG-g5z99O_Y5z-0">
          <mxGeometry y="52" width="140" height="26" as="geometry" />
        </mxCell>
        <mxCell id="kHC7lExiG-g5z99O_Y5z-3" value="Сорт_продукта" style="swimlane;fontStyle=0;childLayout=stackLayout;horizontal=1;startSize=26;fillColor=none;horizontalStack=0;resizeParent=1;resizeParentMax=0;resizeLast=0;collapsible=1;marginBottom=0;" vertex="1" parent="WIyWlLk6GJQsqaUBKTNV-1">
          <mxGeometry x="40" y="140" width="140" height="104" as="geometry" />
        </mxCell>
        <mxCell id="kHC7lExiG-g5z99O_Y5z-4" value="Код_сорта" style="text;strokeColor=none;fillColor=none;align=left;verticalAlign=top;spacingLeft=4;spacingRight=4;overflow=hidden;rotatable=0;points=[[0,0.5],[1,0.5]];portConstraint=eastwest;" vertex="1" parent="kHC7lExiG-g5z99O_Y5z-3">
          <mxGeometry y="26" width="140" height="26" as="geometry" />
        </mxCell>
        <mxCell id="kHC7lExiG-g5z99O_Y5z-5" value="Группа_продукта" style="text;strokeColor=none;fillColor=none;align=left;verticalAlign=top;spacingLeft=4;spacingRight=4;overflow=hidden;rotatable=0;points=[[0,0.5],[1,0.5]];portConstraint=eastwest;" vertex="1" parent="kHC7lExiG-g5z99O_Y5z-3">
          <mxGeometry y="52" width="140" height="26" as="geometry" />
        </mxCell>
        <mxCell id="kHC7lExiG-g5z99O_Y5z-6" value="Сорт" style="text;strokeColor=none;fillColor=none;align=left;verticalAlign=top;spacingLeft=4;spacingRight=4;overflow=hidden;rotatable=0;points=[[0,0.5],[1,0.5]];portConstraint=eastwest;" vertex="1" parent="kHC7lExiG-g5z99O_Y5z-3">
          <mxGeometry y="78" width="140" height="26" as="geometry" />
        </mxCell>
        <mxCell id="kHC7lExiG-g5z99O_Y5z-7" value="Продукт" style="swimlane;fontStyle=0;childLayout=stackLayout;horizontal=1;startSize=26;fillColor=none;horizontalStack=0;resizeParent=1;resizeParentMax=0;resizeLast=0;collapsible=1;marginBottom=0;" vertex="1" parent="WIyWlLk6GJQsqaUBKTNV-1">
          <mxGeometry x="240" y="80" width="140" height="130" as="geometry" />
        </mxCell>
        <mxCell id="kHC7lExiG-g5z99O_Y5z-8" value="Код_продукта" style="text;strokeColor=none;fillColor=none;align=left;verticalAlign=top;spacingLeft=4;spacingRight=4;overflow=hidden;rotatable=0;points=[[0,0.5],[1,0.5]];portConstraint=eastwest;" vertex="1" parent="kHC7lExiG-g5z99O_Y5z-7">
          <mxGeometry y="26" width="140" height="26" as="geometry" />
        </mxCell>
        <mxCell id="kHC7lExiG-g5z99O_Y5z-9" value="Код_группы" style="text;strokeColor=none;fillColor=none;align=left;verticalAlign=top;spacingLeft=4;spacingRight=4;overflow=hidden;rotatable=0;points=[[0,0.5],[1,0.5]];portConstraint=eastwest;" vertex="1" parent="kHC7lExiG-g5z99O_Y5z-7">
          <mxGeometry y="52" width="140" height="26" as="geometry" />
        </mxCell>
        <mxCell id="kHC7lExiG-g5z99O_Y5z-10" value="Код_сорта" style="text;strokeColor=none;fillColor=none;align=left;verticalAlign=top;spacingLeft=4;spacingRight=4;overflow=hidden;rotatable=0;points=[[0,0.5],[1,0.5]];portConstraint=eastwest;" vertex="1" parent="kHC7lExiG-g5z99O_Y5z-7">
          <mxGeometry y="78" width="140" height="26" as="geometry" />
        </mxCell>
        <mxCell id="kHC7lExiG-g5z99O_Y5z-11" value="Название_продукта" style="text;strokeColor=none;fillColor=none;align=left;verticalAlign=top;spacingLeft=4;spacingRight=4;overflow=hidden;rotatable=0;points=[[0,0.5],[1,0.5]];portConstraint=eastwest;" vertex="1" parent="kHC7lExiG-g5z99O_Y5z-7">
          <mxGeometry y="104" width="140" height="26" as="geometry" />
        </mxCell>
        <mxCell id="kHC7lExiG-g5z99O_Y5z-12" value="Регион" style="swimlane;fontStyle=0;childLayout=stackLayout;horizontal=1;startSize=26;fillColor=none;horizontalStack=0;resizeParent=1;resizeParentMax=0;resizeLast=0;collapsible=1;marginBottom=0;" vertex="1" parent="WIyWlLk6GJQsqaUBKTNV-1">
          <mxGeometry x="440" y="66" width="140" height="78" as="geometry" />
        </mxCell>
        <mxCell id="kHC7lExiG-g5z99O_Y5z-13" value="Код_региона" style="text;strokeColor=none;fillColor=none;align=left;verticalAlign=top;spacingLeft=4;spacingRight=4;overflow=hidden;rotatable=0;points=[[0,0.5],[1,0.5]];portConstraint=eastwest;" vertex="1" parent="kHC7lExiG-g5z99O_Y5z-12">
          <mxGeometry y="26" width="140" height="26" as="geometry" />
        </mxCell>
        <mxCell id="kHC7lExiG-g5z99O_Y5z-14" value="Название_региона" style="text;strokeColor=none;fillColor=none;align=left;verticalAlign=top;spacingLeft=4;spacingRight=4;overflow=hidden;rotatable=0;points=[[0,0.5],[1,0.5]];portConstraint=eastwest;" vertex="1" parent="kHC7lExiG-g5z99O_Y5z-12">
          <mxGeometry y="52" width="140" height="26" as="geometry" />
        </mxCell>
        <mxCell id="kHC7lExiG-g5z99O_Y5z-15" value="Адресс" style="swimlane;fontStyle=0;childLayout=stackLayout;horizontal=1;startSize=26;fillColor=none;horizontalStack=0;resizeParent=1;resizeParentMax=0;resizeLast=0;collapsible=1;marginBottom=0;" vertex="1" parent="WIyWlLk6GJQsqaUBKTNV-1">
          <mxGeometry x="440" y="160" width="140" height="104" as="geometry" />
        </mxCell>
        <mxCell id="kHC7lExiG-g5z99O_Y5z-16" value="Код_адрееса" style="text;strokeColor=none;fillColor=none;align=left;verticalAlign=top;spacingLeft=4;spacingRight=4;overflow=hidden;rotatable=0;points=[[0,0.5],[1,0.5]];portConstraint=eastwest;" vertex="1" parent="kHC7lExiG-g5z99O_Y5z-15">
          <mxGeometry y="26" width="140" height="26" as="geometry" />
        </mxCell>
        <mxCell id="kHC7lExiG-g5z99O_Y5z-17" value="Регион" style="text;strokeColor=none;fillColor=none;align=left;verticalAlign=top;spacingLeft=4;spacingRight=4;overflow=hidden;rotatable=0;points=[[0,0.5],[1,0.5]];portConstraint=eastwest;" vertex="1" parent="kHC7lExiG-g5z99O_Y5z-15">
          <mxGeometry y="52" width="140" height="26" as="geometry" />
        </mxCell>
        <mxCell id="kHC7lExiG-g5z99O_Y5z-18" value="Адресс" style="text;strokeColor=none;fillColor=none;align=left;verticalAlign=top;spacingLeft=4;spacingRight=4;overflow=hidden;rotatable=0;points=[[0,0.5],[1,0.5]];portConstraint=eastwest;" vertex="1" parent="kHC7lExiG-g5z99O_Y5z-15">
          <mxGeometry y="78" width="140" height="26" as="geometry" />
        </mxCell>
        <mxCell id="kHC7lExiG-g5z99O_Y5z-19" value="Комбинат" style="swimlane;fontStyle=0;childLayout=stackLayout;horizontal=1;startSize=26;fillColor=none;horizontalStack=0;resizeParent=1;resizeParentMax=0;resizeLast=0;collapsible=1;marginBottom=0;" vertex="1" parent="WIyWlLk6GJQsqaUBKTNV-1">
          <mxGeometry x="720" y="40" width="140" height="130" as="geometry" />
        </mxCell>
        <mxCell id="kHC7lExiG-g5z99O_Y5z-20" value="Код_комбината" style="text;strokeColor=none;fillColor=none;align=left;verticalAlign=top;spacingLeft=4;spacingRight=4;overflow=hidden;rotatable=0;points=[[0,0.5],[1,0.5]];portConstraint=eastwest;" vertex="1" parent="kHC7lExiG-g5z99O_Y5z-19">
          <mxGeometry y="26" width="140" height="26" as="geometry" />
        </mxCell>
        <mxCell id="kHC7lExiG-g5z99O_Y5z-21" value="Код_региона" style="text;strokeColor=none;fillColor=none;align=left;verticalAlign=top;spacingLeft=4;spacingRight=4;overflow=hidden;rotatable=0;points=[[0,0.5],[1,0.5]];portConstraint=eastwest;" vertex="1" parent="kHC7lExiG-g5z99O_Y5z-19">
          <mxGeometry y="52" width="140" height="26" as="geometry" />
        </mxCell>
        <mxCell id="kHC7lExiG-g5z99O_Y5z-22" value="Код_адреса" style="text;strokeColor=none;fillColor=none;align=left;verticalAlign=top;spacingLeft=4;spacingRight=4;overflow=hidden;rotatable=0;points=[[0,0.5],[1,0.5]];portConstraint=eastwest;" vertex="1" parent="kHC7lExiG-g5z99O_Y5z-19">
          <mxGeometry y="78" width="140" height="26" as="geometry" />
        </mxCell>
        <mxCell id="kHC7lExiG-g5z99O_Y5z-23" value="Название" style="text;strokeColor=none;fillColor=none;align=left;verticalAlign=top;spacingLeft=4;spacingRight=4;overflow=hidden;rotatable=0;points=[[0,0.5],[1,0.5]];portConstraint=eastwest;" vertex="1" parent="kHC7lExiG-g5z99O_Y5z-19">
          <mxGeometry y="104" width="140" height="26" as="geometry" />
        </mxCell>
        <mxCell id="kHC7lExiG-g5z99O_Y5z-24" value="Контактные_лица" style="swimlane;fontStyle=0;childLayout=stackLayout;horizontal=1;startSize=26;fillColor=none;horizontalStack=0;resizeParent=1;resizeParentMax=0;resizeLast=0;collapsible=1;marginBottom=0;" vertex="1" parent="WIyWlLk6GJQsqaUBKTNV-1">
          <mxGeometry x="720" y="200" width="140" height="156" as="geometry" />
        </mxCell>
        <mxCell id="kHC7lExiG-g5z99O_Y5z-25" value="Код_лица" style="text;strokeColor=none;fillColor=none;align=left;verticalAlign=top;spacingLeft=4;spacingRight=4;overflow=hidden;rotatable=0;points=[[0,0.5],[1,0.5]];portConstraint=eastwest;" vertex="1" parent="kHC7lExiG-g5z99O_Y5z-24">
          <mxGeometry y="26" width="140" height="26" as="geometry" />
        </mxCell>
        <mxCell id="kHC7lExiG-g5z99O_Y5z-26" value="Код_комбината" style="text;strokeColor=none;fillColor=none;align=left;verticalAlign=top;spacingLeft=4;spacingRight=4;overflow=hidden;rotatable=0;points=[[0,0.5],[1,0.5]];portConstraint=eastwest;" vertex="1" parent="kHC7lExiG-g5z99O_Y5z-24">
          <mxGeometry y="52" width="140" height="26" as="geometry" />
        </mxCell>
        <mxCell id="kHC7lExiG-g5z99O_Y5z-27" value="Фамилия" style="text;strokeColor=none;fillColor=none;align=left;verticalAlign=top;spacingLeft=4;spacingRight=4;overflow=hidden;rotatable=0;points=[[0,0.5],[1,0.5]];portConstraint=eastwest;" vertex="1" parent="kHC7lExiG-g5z99O_Y5z-24">
          <mxGeometry y="78" width="140" height="26" as="geometry" />
        </mxCell>
        <mxCell id="kHC7lExiG-g5z99O_Y5z-28" value="Имя" style="text;strokeColor=none;fillColor=none;align=left;verticalAlign=top;spacingLeft=4;spacingRight=4;overflow=hidden;rotatable=0;points=[[0,0.5],[1,0.5]];portConstraint=eastwest;" vertex="1" parent="kHC7lExiG-g5z99O_Y5z-24">
          <mxGeometry y="104" width="140" height="26" as="geometry" />
        </mxCell>
        <mxCell id="kHC7lExiG-g5z99O_Y5z-29" value="Отчество" style="text;strokeColor=none;fillColor=none;align=left;verticalAlign=top;spacingLeft=4;spacingRight=4;overflow=hidden;rotatable=0;points=[[0,0.5],[1,0.5]];portConstraint=eastwest;" vertex="1" parent="kHC7lExiG-g5z99O_Y5z-24">
          <mxGeometry y="130" width="140" height="26" as="geometry" />
        </mxCell>
        <mxCell id="kHC7lExiG-g5z99O_Y5z-30" value="Телефоны" style="swimlane;fontStyle=0;childLayout=stackLayout;horizontal=1;startSize=26;fillColor=none;horizontalStack=0;resizeParent=1;resizeParentMax=0;resizeLast=0;collapsible=1;marginBottom=0;" vertex="1" parent="WIyWlLk6GJQsqaUBKTNV-1">
          <mxGeometry x="440" y="278" width="140" height="78" as="geometry" />
        </mxCell>
        <mxCell id="kHC7lExiG-g5z99O_Y5z-31" value="Код_лица" style="text;strokeColor=none;fillColor=none;align=left;verticalAlign=top;spacingLeft=4;spacingRight=4;overflow=hidden;rotatable=0;points=[[0,0.5],[1,0.5]];portConstraint=eastwest;" vertex="1" parent="kHC7lExiG-g5z99O_Y5z-30">
          <mxGeometry y="26" width="140" height="26" as="geometry" />
        </mxCell>
        <mxCell id="kHC7lExiG-g5z99O_Y5z-32" value="Телефон" style="text;strokeColor=none;fillColor=none;align=left;verticalAlign=top;spacingLeft=4;spacingRight=4;overflow=hidden;rotatable=0;points=[[0,0.5],[1,0.5]];portConstraint=eastwest;" vertex="1" parent="kHC7lExiG-g5z99O_Y5z-30">
          <mxGeometry y="52" width="140" height="26" as="geometry" />
        </mxCell>
        <mxCell id="kHC7lExiG-g5z99O_Y5z-33" value="Заказ" style="swimlane;fontStyle=0;childLayout=stackLayout;horizontal=1;startSize=26;fillColor=none;horizontalStack=0;resizeParent=1;resizeParentMax=0;resizeLast=0;collapsible=1;marginBottom=0;" vertex="1" parent="WIyWlLk6GJQsqaUBKTNV-1">
          <mxGeometry x="900" y="-50" width="140" height="78" as="geometry" />
        </mxCell>
        <mxCell id="kHC7lExiG-g5z99O_Y5z-34" value="Код_продукты" style="text;strokeColor=none;fillColor=none;align=left;verticalAlign=top;spacingLeft=4;spacingRight=4;overflow=hidden;rotatable=0;points=[[0,0.5],[1,0.5]];portConstraint=eastwest;" vertex="1" parent="kHC7lExiG-g5z99O_Y5z-33">
          <mxGeometry y="26" width="140" height="26" as="geometry" />
        </mxCell>
        <mxCell id="kHC7lExiG-g5z99O_Y5z-35" value="Номер_заказа" style="text;strokeColor=none;fillColor=none;align=left;verticalAlign=top;spacingLeft=4;spacingRight=4;overflow=hidden;rotatable=0;points=[[0,0.5],[1,0.5]];portConstraint=eastwest;" vertex="1" parent="kHC7lExiG-g5z99O_Y5z-33">
          <mxGeometry y="52" width="140" height="26" as="geometry" />
        </mxCell>
        <mxCell id="kHC7lExiG-g5z99O_Y5z-36" value="Поставка" style="swimlane;fontStyle=0;childLayout=stackLayout;horizontal=1;startSize=26;fillColor=none;horizontalStack=0;resizeParent=1;resizeParentMax=0;resizeLast=0;collapsible=1;marginBottom=0;" vertex="1" parent="WIyWlLk6GJQsqaUBKTNV-1">
          <mxGeometry x="900" y="200" width="140" height="156" as="geometry" />
        </mxCell>
        <mxCell id="kHC7lExiG-g5z99O_Y5z-37" value="Код_поставки" style="text;strokeColor=none;fillColor=none;align=left;verticalAlign=top;spacingLeft=4;spacingRight=4;overflow=hidden;rotatable=0;points=[[0,0.5],[1,0.5]];portConstraint=eastwest;" vertex="1" parent="kHC7lExiG-g5z99O_Y5z-36">
          <mxGeometry y="26" width="140" height="26" as="geometry" />
        </mxCell>
        <mxCell id="kHC7lExiG-g5z99O_Y5z-38" value="Код_комбината" style="text;strokeColor=none;fillColor=none;align=left;verticalAlign=top;spacingLeft=4;spacingRight=4;overflow=hidden;rotatable=0;points=[[0,0.5],[1,0.5]];portConstraint=eastwest;" vertex="1" parent="kHC7lExiG-g5z99O_Y5z-36">
          <mxGeometry y="52" width="140" height="26" as="geometry" />
        </mxCell>
        <mxCell id="kHC7lExiG-g5z99O_Y5z-39" value="Цена_заказа" style="text;strokeColor=none;fillColor=none;align=left;verticalAlign=top;spacingLeft=4;spacingRight=4;overflow=hidden;rotatable=0;points=[[0,0.5],[1,0.5]];portConstraint=eastwest;" vertex="1" parent="kHC7lExiG-g5z99O_Y5z-36">
          <mxGeometry y="78" width="140" height="26" as="geometry" />
        </mxCell>
        <mxCell id="kHC7lExiG-g5z99O_Y5z-40" value="Номер_заказа" style="text;strokeColor=none;fillColor=none;align=left;verticalAlign=top;spacingLeft=4;spacingRight=4;overflow=hidden;rotatable=0;points=[[0,0.5],[1,0.5]];portConstraint=eastwest;" vertex="1" parent="kHC7lExiG-g5z99O_Y5z-36">
          <mxGeometry y="104" width="140" height="26" as="geometry" />
        </mxCell>
        <mxCell id="kHC7lExiG-g5z99O_Y5z-41" value="Дата" style="text;strokeColor=none;fillColor=none;align=left;verticalAlign=top;spacingLeft=4;spacingRight=4;overflow=hidden;rotatable=0;points=[[0,0.5],[1,0.5]];portConstraint=eastwest;" vertex="1" parent="kHC7lExiG-g5z99O_Y5z-36">
          <mxGeometry y="130" width="140" height="26" as="geometry" />
        </mxCell>
        <mxCell id="kHC7lExiG-g5z99O_Y5z-42" value="Цена" style="swimlane;fontStyle=0;childLayout=stackLayout;horizontal=1;startSize=26;fillColor=none;horizontalStack=0;resizeParent=1;resizeParentMax=0;resizeLast=0;collapsible=1;marginBottom=0;" vertex="1" parent="WIyWlLk6GJQsqaUBKTNV-1">
          <mxGeometry x="820" y="-220" width="220" height="154" as="geometry" />
        </mxCell>
        <mxCell id="kHC7lExiG-g5z99O_Y5z-43" value="Код_продукта" style="text;strokeColor=none;fillColor=none;align=left;verticalAlign=top;spacingLeft=4;spacingRight=4;overflow=hidden;rotatable=0;points=[[0,0.5],[1,0.5]];portConstraint=eastwest;" vertex="1" parent="kHC7lExiG-g5z99O_Y5z-42">
          <mxGeometry y="26" width="220" height="26" as="geometry" />
        </mxCell>
        <mxCell id="kHC7lExiG-g5z99O_Y5z-44" value="Цена" style="text;strokeColor=none;fillColor=none;align=left;verticalAlign=top;spacingLeft=4;spacingRight=4;overflow=hidden;rotatable=0;points=[[0,0.5],[1,0.5]];portConstraint=eastwest;" vertex="1" parent="kHC7lExiG-g5z99O_Y5z-42">
          <mxGeometry y="52" width="220" height="26" as="geometry" />
        </mxCell>
        <mxCell id="kHC7lExiG-g5z99O_Y5z-45" value="Код_комбината" style="text;strokeColor=none;fillColor=none;align=left;verticalAlign=top;spacingLeft=4;spacingRight=4;overflow=hidden;rotatable=0;points=[[0,0.5],[1,0.5]];portConstraint=eastwest;" vertex="1" parent="kHC7lExiG-g5z99O_Y5z-42">
          <mxGeometry y="78" width="220" height="24" as="geometry" />
        </mxCell>
        <mxCell id="kHC7lExiG-g5z99O_Y5z-46" value="Дата_изменения_цены" style="text;strokeColor=none;fillColor=none;align=left;verticalAlign=top;spacingLeft=4;spacingRight=4;overflow=hidden;rotatable=0;points=[[0,0.5],[1,0.5]];portConstraint=eastwest;" vertex="1" parent="kHC7lExiG-g5z99O_Y5z-42">
          <mxGeometry y="102" width="220" height="26" as="geometry" />
        </mxCell>
        <mxCell id="kHC7lExiG-g5z99O_Y5z-47" value="Следущая_дата_изменения_цены" style="text;strokeColor=none;fillColor=none;align=left;verticalAlign=top;spacingLeft=4;spacingRight=4;overflow=hidden;rotatable=0;points=[[0,0.5],[1,0.5]];portConstraint=eastwest;" vertex="1" parent="kHC7lExiG-g5z99O_Y5z-42">
          <mxGeometry y="128" width="220" height="26" as="geometry" />
        </mxCell>
        <mxCell id="kHC7lExiG-g5z99O_Y5z-48" style="edgeStyle=orthogonalEdgeStyle;rounded=0;orthogonalLoop=1;jettySize=auto;html=1;exitX=1;exitY=0.5;exitDx=0;exitDy=0;entryX=0;entryY=0.5;entryDx=0;entryDy=0;" edge="1" parent="WIyWlLk6GJQsqaUBKTNV-1" source="kHC7lExiG-g5z99O_Y5z-1" target="kHC7lExiG-g5z99O_Y5z-7">
          <mxGeometry relative="1" as="geometry" />
        </mxCell>
        <mxCell id="kHC7lExiG-g5z99O_Y5z-49" style="edgeStyle=orthogonalEdgeStyle;rounded=0;orthogonalLoop=1;jettySize=auto;html=1;exitX=1;exitY=0.5;exitDx=0;exitDy=0;entryX=0;entryY=0.5;entryDx=0;entryDy=0;" edge="1" parent="WIyWlLk6GJQsqaUBKTNV-1" source="kHC7lExiG-g5z99O_Y5z-4" target="kHC7lExiG-g5z99O_Y5z-10">
          <mxGeometry relative="1" as="geometry" />
        </mxCell>
        <mxCell id="kHC7lExiG-g5z99O_Y5z-50" style="edgeStyle=orthogonalEdgeStyle;rounded=0;orthogonalLoop=1;jettySize=auto;html=1;entryX=0;entryY=0.5;entryDx=0;entryDy=0;" edge="1" parent="WIyWlLk6GJQsqaUBKTNV-1" source="kHC7lExiG-g5z99O_Y5z-13" target="kHC7lExiG-g5z99O_Y5z-21">
          <mxGeometry relative="1" as="geometry" />
        </mxCell>
        <mxCell id="kHC7lExiG-g5z99O_Y5z-51" style="edgeStyle=orthogonalEdgeStyle;rounded=0;orthogonalLoop=1;jettySize=auto;html=1;entryX=0;entryY=0.5;entryDx=0;entryDy=0;" edge="1" parent="WIyWlLk6GJQsqaUBKTNV-1" source="kHC7lExiG-g5z99O_Y5z-16" target="kHC7lExiG-g5z99O_Y5z-22">
          <mxGeometry relative="1" as="geometry" />
        </mxCell>
        <mxCell id="kHC7lExiG-g5z99O_Y5z-52" style="edgeStyle=orthogonalEdgeStyle;rounded=0;orthogonalLoop=1;jettySize=auto;html=1;exitX=1;exitY=0.5;exitDx=0;exitDy=0;entryX=1;entryY=0.5;entryDx=0;entryDy=0;" edge="1" parent="WIyWlLk6GJQsqaUBKTNV-1" source="kHC7lExiG-g5z99O_Y5z-20" target="kHC7lExiG-g5z99O_Y5z-26">
          <mxGeometry relative="1" as="geometry" />
        </mxCell>
        <mxCell id="kHC7lExiG-g5z99O_Y5z-53" style="edgeStyle=orthogonalEdgeStyle;rounded=0;orthogonalLoop=1;jettySize=auto;html=1;exitX=0;exitY=0.5;exitDx=0;exitDy=0;" edge="1" parent="WIyWlLk6GJQsqaUBKTNV-1" source="kHC7lExiG-g5z99O_Y5z-25" target="kHC7lExiG-g5z99O_Y5z-31">
          <mxGeometry relative="1" as="geometry" />
        </mxCell>
        <mxCell id="kHC7lExiG-g5z99O_Y5z-54" style="edgeStyle=orthogonalEdgeStyle;rounded=0;orthogonalLoop=1;jettySize=auto;html=1;exitX=1;exitY=0.5;exitDx=0;exitDy=0;entryX=0;entryY=0.5;entryDx=0;entryDy=0;" edge="1" parent="WIyWlLk6GJQsqaUBKTNV-1" source="kHC7lExiG-g5z99O_Y5z-20" target="kHC7lExiG-g5z99O_Y5z-38">
          <mxGeometry relative="1" as="geometry" />
        </mxCell>
        <mxCell id="kHC7lExiG-g5z99O_Y5z-55" style="edgeStyle=orthogonalEdgeStyle;rounded=0;orthogonalLoop=1;jettySize=auto;html=1;exitX=1;exitY=0.5;exitDx=0;exitDy=0;entryX=1;entryY=0.5;entryDx=0;entryDy=0;" edge="1" parent="WIyWlLk6GJQsqaUBKTNV-1" source="kHC7lExiG-g5z99O_Y5z-35" target="kHC7lExiG-g5z99O_Y5z-40">
          <mxGeometry relative="1" as="geometry" />
        </mxCell>
        <mxCell id="kHC7lExiG-g5z99O_Y5z-56" style="edgeStyle=orthogonalEdgeStyle;rounded=0;orthogonalLoop=1;jettySize=auto;html=1;exitX=1;exitY=0.5;exitDx=0;exitDy=0;entryX=0;entryY=0.5;entryDx=0;entryDy=0;" edge="1" parent="WIyWlLk6GJQsqaUBKTNV-1" source="kHC7lExiG-g5z99O_Y5z-8" target="kHC7lExiG-g5z99O_Y5z-34">
          <mxGeometry relative="1" as="geometry">
            <Array as="points">
              <mxPoint x="400" y="119" />
              <mxPoint x="400" y="-11" />
            </Array>
          </mxGeometry>
        </mxCell>
        <mxCell id="kHC7lExiG-g5z99O_Y5z-57" style="edgeStyle=orthogonalEdgeStyle;rounded=0;orthogonalLoop=1;jettySize=auto;html=1;exitX=1;exitY=0.5;exitDx=0;exitDy=0;entryX=0;entryY=0.5;entryDx=0;entryDy=0;" edge="1" parent="WIyWlLk6GJQsqaUBKTNV-1" source="kHC7lExiG-g5z99O_Y5z-8" target="kHC7lExiG-g5z99O_Y5z-43">
          <mxGeometry relative="1" as="geometry">
            <Array as="points">
              <mxPoint x="400" y="119" />
              <mxPoint x="400" y="-181" />
            </Array>
          </mxGeometry>
        </mxCell>
        <mxCell id="kHC7lExiG-g5z99O_Y5z-58" style="edgeStyle=orthogonalEdgeStyle;rounded=0;orthogonalLoop=1;jettySize=auto;html=1;exitX=1;exitY=0.5;exitDx=0;exitDy=0;" edge="1" parent="WIyWlLk6GJQsqaUBKTNV-1" source="kHC7lExiG-g5z99O_Y5z-41" target="kHC7lExiG-g5z99O_Y5z-46">
          <mxGeometry relative="1" as="geometry">
            <Array as="points">
              <mxPoint x="1110" y="317" />
              <mxPoint x="1110" y="-105" />
            </Array>
          </mxGeometry>
        </mxCell>
      </root>
    </mxGraphModel>
  </diagram>
</mxfile>
